<svg id="Layer_1" data-name="Layer 1" xmlns="http://www.w3.org/2000/svg" viewBox="0 0 243.57 298.75"><defs><style>.cls-1{fill:#58595b}</style></defs><path class="cls-1" d="M5.75 294.83a19.48 19.48 0 010-24.86 14.29 14.29 0 0110.93-4.88 11.47 11.47 0 019.9 4.78v-4.42h10.36v33.8H26.59v-4.91a11.71 11.71 0 01-10.05 5.33 14.16 14.16 0 01-10.79-4.84zm18.6-6.3a8.24 8.24 0 002.24-6.18 8.12 8.12 0 00-2.24-6.15 7.2 7.2 0 00-10.3 0 8.22 8.22 0 00-2.24 6.18 8.12 8.12 0 002.19 6.18 7.21 7.21 0 0010.34-.03zM50.94 294.83a19.48 19.48 0 010-24.86 14.29 14.29 0 0110.93-4.88 11.47 11.47 0 019.9 4.78v-15.44h10.36v44.83H71.77v-4.91a11.71 11.71 0 01-10.05 5.33 14.16 14.16 0 01-10.78-4.85zm18.6-6.3a8.24 8.24 0 002.24-6.18 8.13 8.13 0 00-2.24-6.15 7.2 7.2 0 00-10.3 0 8.23 8.23 0 00-2.24 6.21 8.12 8.12 0 002.24 6.15 7.21 7.21 0 0010.29-.03zM89.65 265.45h11l7.69 25.14 7.69-25.14h11l-12 33.8h-13.38zM149 299.68a16.34 16.34 0 01-12.12-4.76q-4.73-4.75-4.72-12.63t4.7-12.54a16.5 16.5 0 0112.14-4.66 17.36 17.36 0 0112.36 4.6q4.9 4.6 4.9 12.78a20.93 20.93 0 01-.24 3.27h-23.26a5.91 5.91 0 005.66 5.09 8.29 8.29 0 002.94-.39 5.31 5.31 0 001.42-.79 10.34 10.34 0 001.18-1.3h11.21a14.84 14.84 0 01-5.82 8.21 17.32 17.32 0 01-10.35 3.12zm4.42-24.26a6.59 6.59 0 00-4.3-1.48 6.12 6.12 0 00-4.18 1.48 6.47 6.47 0 00-2.12 3.84h12.66a5.51 5.51 0 00-2.06-3.84zM186.21 265.45v5q3.21-5.32 10.24-5.33a12.27 12.27 0 019.42 3.88q3.61 3.87 3.61 10.54v19.75h-10.3V280.9a7 7 0 00-1.72-5.06 7.21 7.21 0 00-9.51 0 7 7 0 00-1.73 5.06v18.35h-10.37v-33.8h10.36zM244.84 265.45V274l-13 16.72h13v8.54H219.7v-8.54l13-16.72h-13v-8.54h25.14z" transform="translate(-1.26 -.93)"/><path fill="#1a97d4" d="M232.89 63.54l1.56-2.59L.19 238.07H93L232.89 63.54z"/><path fill="#91caee" d="M135.93 238.07L222.5 82.42 108.4 238.07h27.53z"/><path fill="#083553" d="M170.39 95.75L121.56 0 12.31 215.22 170.39 95.75z"/><path d="M244.2 239.35l-45.36-89-49.35 89h94.71z" transform="translate(-1.26 -.93)" fill="#62b6e6"/></svg>